:SAMPLES-PER-SECOND 30
:FULLY-SPECIFIED
:DEGREES
191
root  -30.9415 38.0679 5.29753 169.535 37.3259 175.624
RightUpLeg  -16.5317 18.8293 -16.9133
RightLeg  17.4146 14.3826 3.3749
RightFoot  -11.699 -0.0456522 10.3667
RightToes  5.82063e-011 0 -3.6325e-017
Spine  13.5932 -0.0248371 5.53752
Spine1  12.3026 1.3694 -2.19825
HEad  -23.1757 3.49119 -10.1093
LeftShoulder1  0.838706 0.709965 -23.7466
LeftArm  -13.241 -15.763 -40.6691
LeftForeArm  6.46639 -66.5163 -26.8607
LeftHand  0.0126552 4.24575 -1.91226
RightShoulder  0.21598 -2.59572 17.775
RightArm  -5.63783 34.3074 32.53
RightForeArm  -19.6439 60.2019 21.892
RightHand  -0.207212 5.68524 -2.49874
LeftUpLeg  4.07986 -27.9764 -2.74238
LeftLeg  30.348 -14.1025 -8.44027
LeftFoot  -23.1763 0.77772 6.17223
LeftToes  1.68253e-010 -3.2327e-011 -2.69673e-012
192
root  -29.4889 37.9446 5.76841 170.373 32.1351 175.899
RightUpLeg  -17.4505 17.3171 -16.1754
RightLeg  21.6402 10.2105 4.39208
RightFoot  -8.36702 -0.338281 10.9417
RightToes  5.82063e-011 0 -3.6325e-017
Spine  14.4483 -0.239581 6.73135
Spine1  11.9388 1.74212 -3.48368
HEad  -24.2327 3.42621 -9.94483
LeftShoulder1  0.79833 0.854263 -23.8647
LeftArm  -13.8277 -16.113 -40.0214
LeftForeArm  6.18784 -66.6081 -27.0395
LeftHand  0.0145977 4.18011 -2.19804
RightShoulder  0.199016 -2.67474 18.0793
RightArm  -5.63742 34.6699 33.1069
RightForeArm  -19.7628 60.6114 22.2959
RightHand  -0.238814 5.35639 -2.88924
LeftUpLeg  2.26808 -29.4653 0.0823091
LeftLeg  32.042 -14.0138 -8.9527
LeftFoot  -22.9131 0.366977 2.2043
LeftToes  1.68253e-010 -3.2327e-011 -2.69673e-012
193
root  -28.0666 37.9291 6.19693 171.393 26.0964 176.807
RightUpLeg  -16.7997 9.71232 -13.705
RightLeg  24.7223 10.5973 5.06775
RightFoot  -8.01531 -0.343385 9.87023
RightToes  5.82063e-011 0 -3.6325e-017
Spine  14.7349 -0.672001 7.9878
Spine1  12.3108 1.48047 -3.04416
HEad  -24.6473 3.25047 -10.1296
LeftShoulder1  0.894243 0.514585 -23.6314
LeftArm  -14.7315 -15.912 -40.2835
LeftForeArm  6.18819 -66.5009 -26.8749
LeftHand  0.0163353 3.95443 -2.0754
RightShoulder  0.240745 -2.48738 17.6009
RightArm  -5.94062 35.1097 33.4251
RightForeArm  -19.9745 60.254 21.9642
RightHand  -0.273621 6.04021 -3.11737
LeftUpLeg  -0.738943 -27.8824 4.14897
LeftLeg  34.2905 -11.9365 -8.2891
LeftFoot  -20.577 0.00207511 -1.57988
LeftToes  1.68253e-010 -3.2327e-011 -2.69673e-012
194
root  -26.5396 38.0171 6.61815 172.625 19.4504 178.11
RightUpLeg  -15.7348 1.94547 -11.007
RightLeg  26.2259 10.1416 5.17381
RightFoot  -8.74962 -0.251508 8.47637
RightToes  5.82063e-011 0 -3.6325e-017
Spine  14.557 -0.826907 8.49971
Spine1  12.429 0.924516 -1.19929
HEad  -23.958 2.93275 -10.0293
LeftShoulder1  0.954405 0.334906 -23.8529
LeftArm  -14.5585 -16.2305 -40.6042
LeftForeArm  5.92556 -66.0615 -26.2494
LeftHand  0.0145664 3.83607 -1.46137
RightShoulder  0.277466 -2.31513 17.0969
RightArm  -6.27736 35.0315 32.8524
RightForeArm  -20.1153 60.3574 22.0753
RightHand  -0.297013 5.21109 -3.55573
LeftUpLeg  -4.72207 -23.3254 8.53158
LeftLeg  36.7325 -6.65503 -4.91114
LeftFoot  -15.5998 -0.0065024 -1.91963
LeftToes  1.68253e-010 -3.2327e-011 -2.69673e-012
195
root  -25.0106 38.1971 6.99404 173.462 13.3427 178.944
RightUpLeg  -14.6391 -4.45448 -8.5929
RightLeg  26.4762 9.14651 4.69966
RightFoot  -8.88905 -0.198898 6.49184
RightToes  5.82063e-011 0 -3.6325e-017
Spine  14.5716 -0.839088 8.99273
Spine1  12.0264 0.785285 -0.581881
HEad  -23.1825 3.48722 -9.06953
LeftShoulder1  0.999912 0.160788 -23.6356
LeftArm  -13.898 -16.6492 -40.7792
LeftForeArm  5.24166 -65.6108 -25.6867
LeftHand  0.0127 3.98617 -2.02022
RightShoulder  0.231303 -2.52185 17.4584
RightArm  -6.30275 35.5736 31.8366
RightForeArm  -21.0465 59.726 21.5437
RightHand  -0.288158 5.61224 -3.35221
LeftUpLeg  -8.26316 -17.4303 10.6093
LeftLeg  39.3024 2.34589 2.45251
LeftFoot  -9.50287 0.0442115 1.42328
LeftToes  1.68253e-010 -3.2327e-011 -2.69673e-012
